# xmcd CD database file
#
# Track frame offsets:
#	150
#	16532
#	29672
#	45317
#	58452
#	73340
#	88186
#	100259
#	112492
#	130387
#	144109
#
# Disc length: 2072 seconds
#
# Revision: 0
# Processed by: cddbd v1.5.2PL0 Copyright (c) Steve Scherf et al.
# Submitted via: CDex 1.51
#
DISCID=a108160b
DTITLE=Barry and Holly Tashian - Long Story Short
DYEAR=2008
DGENRE=Country
TTITLE0=We Don't Give Up On Love
TTITLE1=Worry Doesn't Worry Me
TTITLE2=The Grey Funnel Line
TTITLE3=Rockin' Little Country Girl
TTITLE4=Long Story Short
TTITLE5=Honey, Where's the Money Gone
TTITLE6=The Promise
TTITLE7=Rock It Like It's Saturday Night
TTITLE8=Darkness On the Delta
TTITLE9=Sail Away
TTITLE10=Boogie Woogie Country Girl
EXTD=YEAR: 2008
EXTT0=
EXTT1=
EXTT2=
EXTT3=
EXTT4=
EXTT5=
EXTT6=
EXTT7=
EXTT8=
EXTT9=
EXTT10=
PLAYORDER=
